<?xml version="1.0" encoding="utf-8"?>
<!-- Svg Vector Icons : http://www.onlinewebfonts.com/icon -->
<!DOCTYPE svg PUBLIC "-//W3C//DTD SVG 1.1//EN" "http://www.w3.org/Graphics/SVG/1.1/DTD/svg11.dtd">
<svg version="1.1" xmlns="http://www.w3.org/2000/svg" xmlns:xlink="http://www.w3.org/1999/xlink" x="0px" y="0px" viewBox="0 0 256 256" enable-background="new 0 0 256 256" xml:space="preserve">
<metadata> Svg Vector Icons : http://www.onlinewebfonts.com/icon </metadata>
<g><g><path fill="#000000" d="M243.3,115.3c-16.7,19.3-46.3,51.2-46.3,51.2s4.8,35,7.6,59c1.2,12.2-8.1,17.5-18.6,12.7c-20-9.5-50.4-24.3-57.2-27.6c-7,3.3-37.7,17.8-57.8,27.3c-10.6,4.7-20-0.5-18.8-12.7c2.7-23.9,7.6-58.9,7.6-58.9s-29.9-31.8-46.9-51.1c-6-7-2.1-17,9.7-18.8C46.5,92,83.8,85.2,83.8,85.2s20.4-35.6,33.3-57.5c7.1-13.3,12-11.8,12.9-11.4c2.2,0.7,5.6,3.3,10.2,11.4c12.8,21.9,32.9,57.6,32.9,57.6s36.9,6.9,60.6,11.2C245.4,98.3,249.2,108.3,243.3,115.3z"/></g></g>
</svg>