<svg width="291" height="304" viewBox="0 0 291 304" fill="none" xmlns="http://www.w3.org/2000/svg">
<path d="M137.217 304C212.999 304 274.433 300.693 274.433 296.614C274.433 292.535 212.999 289.228 137.217 289.228C61.4339 289.228 0 292.535 0 296.614C0 300.693 61.4339 304 137.217 304Z" fill="#F1F1F1"/>
<path d="M121.91 263.188C117.769 284.625 97.06 301.919 75.6312 301.919C54.2023 301.919 40.3366 284.625 44.4783 263.188C48.62 241.751 69.3286 224.458 90.7574 224.458C112.186 224.458 126.232 241.751 121.91 263.188Z" fill="#757D85"/>
<path d="M108.405 263.188C105.704 277.059 92.198 288.408 78.3323 288.408C64.4665 288.408 55.4628 277.24 58.1639 263.188C60.8651 249.317 74.3706 237.968 88.2364 237.968C101.922 238.149 111.106 249.317 108.405 263.188Z" fill="#C2BEC1"/>
<path d="M95.6194 263.188C94.3589 270.034 87.6961 275.618 80.8533 275.618C74.0105 275.618 69.5086 270.034 70.9492 263.188C72.2097 256.343 78.8725 250.759 85.7153 250.759C92.378 250.939 96.8799 256.343 95.6194 263.188Z" fill="#FFF6F8"/>
<path d="M104.804 226.8C86.4362 218.873 61.9461 228.601 50.2413 248.417C46.4598 254.902 44.4789 261.567 43.9387 267.872L121.191 267.152C126.233 250.038 119.93 233.285 104.804 226.8Z" fill="#9FBFD4" style="mix-blend-mode:multiply"/>
<path d="M276.414 229.142C276.414 229.142 275.333 173.297 259.127 161.948C251.744 156.724 246.341 146.996 242.92 137.809L230.135 101.24H218.79L230.135 174.198C231.395 180.683 230.495 187.348 227.434 193.293L205.645 235.447C202.583 241.391 206.725 244.634 200.243 243.733C184.936 241.752 169.09 237.788 153.783 230.943V189.51C153.783 176.18 164.588 165.371 177.913 165.371V143.574H153.783H132.895H115.247C63.5662 143.574 21.6089 185.547 21.6089 237.248V261.567H35.1145H153.963H255.165L276.414 229.142Z" fill="#F75D49"/>
<path d="M162.427 251.119L135.236 231.663C133.615 230.583 133.255 228.421 134.335 226.98C135.416 225.539 137.397 225.178 139.017 226.259L166.209 245.715C167.829 246.795 168.189 248.957 167.109 250.398C166.028 252.02 163.868 252.2 162.427 251.119Z" fill="#757D85"/>
<path d="M79.7729 177.26C80.133 164.47 86.0755 154.382 92.0179 146.456C51.5012 156.904 21.6089 193.473 21.6089 237.248V261.567H35.1145H153.963H160.806C129.653 239.59 78.8725 215.811 79.7729 177.26Z" fill="#EEEEEE" style="mix-blend-mode:multiply"/>
<path d="M254.985 261.747L276.594 229.142C276.594 229.142 275.514 173.297 259.307 161.948C251.924 156.724 246.522 146.996 243.1 137.809L230.315 101.24H223.112C223.652 117.994 227.254 135.828 233.916 146.276C236.798 150.96 242.02 158.345 246.161 170.235C246.702 171.856 251.384 185.547 251.384 202.3C251.384 224.098 243.82 244.093 237.158 261.567H254.985V261.747Z" fill="#FC6A57"/>
<path d="M282.355 263.188C278.213 284.625 257.505 301.919 236.076 301.919C214.647 301.919 200.781 284.625 204.923 263.188C209.065 241.751 229.773 224.458 251.202 224.458C272.451 224.458 286.497 241.751 282.355 263.188Z" fill="#757D85"/>
<path d="M268.671 263.188C265.97 277.059 252.464 288.408 238.598 288.408C224.733 288.408 215.729 277.24 218.43 263.188C221.131 249.317 234.637 237.969 248.502 237.969C262.368 238.149 271.372 249.317 268.671 263.188Z" fill="#C2BEC1"/>
<path d="M255.885 263.188C254.625 270.034 247.962 275.618 241.119 275.618C234.277 275.618 229.775 270.034 231.215 263.188C232.476 256.343 239.139 250.759 245.981 250.759C252.824 250.939 257.146 256.343 255.885 263.188Z" fill="#FFF6F8"/>
<path d="M251.023 224.458C229.595 224.458 208.886 241.751 204.744 263.188C203.484 270.034 204.024 276.519 206.005 282.103L282.897 252.74C281.636 236.527 268.851 224.458 251.023 224.458Z" fill="#9FBFD4" style="mix-blend-mode:multiply"/>
<path d="M291 238.329C279.475 213.469 249.223 202.3 222.392 213.469C195.561 224.638 181.875 253.821 191.239 279.581L291 238.329Z" fill="#FC6A57"/>
<path d="M138.837 261.747H44.4783C42.1374 261.747 40.3366 259.946 40.3366 257.604C40.3366 233.465 59.7846 214.01 83.9146 214.01H99.7611C123.891 214.01 143.339 233.465 143.339 257.604C143.159 259.766 141.178 261.747 138.837 261.747Z" fill="#FC6A57"/>
<path d="M177.733 147.357H112.366V162.128H177.733V147.357Z" fill="#EEEEEE" style="mix-blend-mode:multiply"/>
<path d="M230.855 106.645H214.468C213.568 106.645 212.848 105.384 212.848 103.942C212.848 102.501 213.568 101.24 214.468 101.24H230.855C231.756 101.24 232.476 102.501 232.476 103.942C232.476 105.384 231.756 106.645 230.855 106.645Z" fill="#757D85"/>
<path d="M271.012 120.155C271.012 131.144 266.691 139.971 261.288 139.971C255.886 139.971 230.316 131.144 230.316 120.155C230.316 109.166 255.886 100.339 261.288 100.339C266.691 100.339 271.012 109.166 271.012 120.155Z" fill="#FC6A57"/>
<path d="M270.652 125.559C267.59 127.001 263.449 128.982 257.686 128.982C249.583 128.982 243.46 124.839 239.139 121.957C236.077 119.975 233.736 117.813 231.575 115.471C230.675 116.913 230.135 118.354 230.135 119.975C230.135 130.964 255.705 139.791 261.108 139.791C265.79 139.791 269.571 133.846 270.652 125.559Z" fill="#D83B29"/>
<path d="M264.169 139.971C268.048 139.971 271.192 131.099 271.192 120.155C271.192 109.211 268.048 100.339 264.169 100.339C260.29 100.339 257.146 109.211 257.146 120.155C257.146 131.099 260.29 139.971 264.169 139.971Z" fill="#FFF6F8"/>
<path d="M246.161 114.931C249.941 114.931 253.004 113.56 253.004 111.869C253.004 110.177 249.941 108.806 246.161 108.806C242.382 108.806 239.319 110.177 239.319 111.869C239.319 113.56 242.382 114.931 246.161 114.931Z" fill="#FC6A57"/>
<path d="M240.579 119.615C242.767 119.615 244.541 118.808 244.541 117.813C244.541 116.818 242.767 116.012 240.579 116.012C238.391 116.012 236.618 116.818 236.618 117.813C236.618 118.808 238.391 119.615 240.579 119.615Z" fill="#FC6A57"/>
<path d="M249.204 106.184L244.079 82.5948L243.903 82.6331L249.028 106.222L249.204 106.184Z" fill="#29201D"/>
<path d="M241.299 93.8543C243.587 93.8543 245.441 89.0152 245.441 83.0458C245.441 77.0763 243.587 72.2372 241.299 72.2372C239.012 72.2372 237.158 77.0763 237.158 83.0458C237.158 89.0152 239.012 93.8543 241.299 93.8543Z" fill="#FFF6F8"/>
<path d="M243.051 233.701C253.778 230.033 261.119 223.091 259.447 218.196C257.774 213.301 247.722 212.306 236.994 215.974C226.267 219.642 218.926 226.584 220.598 231.479C222.271 236.374 232.323 237.369 243.051 233.701Z" fill="#FE7260"/>
<path d="M110.053 245.908C119.163 242.275 124.995 235.435 123.08 230.629C121.165 225.823 112.228 224.873 103.118 228.506C94.0076 232.139 88.1749 238.98 90.0899 243.785C92.0049 248.591 100.942 249.542 110.053 245.908Z" fill="#FE7260"/>
<path d="M224.225 247.514C228.178 246.163 230.886 243.617 230.275 241.829C229.664 240.04 225.965 239.686 222.012 241.037C218.06 242.388 215.352 244.934 215.963 246.722C216.574 248.511 220.273 248.865 224.225 247.514Z" fill="#FE7260"/>
<path d="M181.335 141.412H112.366V156.184H181.335V141.412Z" fill="#FC6A57"/>
<path d="M263.809 122.497C260.207 117.813 260.207 112.229 260.928 107.545C259.487 110.427 258.587 115.111 258.587 120.515C258.587 129.342 261.108 136.368 264.169 136.368C266.51 136.368 268.311 132.585 269.211 127.001C267.59 125.92 265.429 124.659 263.809 122.497Z" fill="#DFECF5"/>
<path d="M153.423 151.86C157.925 153.482 161.887 154.923 165.668 156.184H181.335V141.412H128.213C132.895 144.474 141.538 147.717 153.423 151.86Z" fill="#EEEEEE" style="mix-blend-mode:multiply"/>
<path d="M136.496 89.1705C136.496 89.1705 178.814 119.074 201.323 136.908C221.671 152.941 193.4 149.879 135.776 140.691C124.251 138.89 122.811 113.49 128.393 103.402L136.496 89.1705Z" fill="#111A2C"/>
<path d="M188.898 144.654C188.898 144.654 175.212 146.636 168.549 167.893C161.887 188.97 150.542 215.991 150.542 215.991L157.565 221.035C157.565 221.035 184.756 186.988 195.561 168.794C195.561 168.794 204.204 163.75 207.265 153.121C209.967 143.393 206.185 140.871 198.802 135.647L188.898 144.654Z" fill="#111A2C"/>
<path d="M147.481 220.134L151.803 213.109L159.546 218.513L156.485 222.656L152.343 227.7L147.481 220.134Z" fill="#FFBC82"/>
<path d="M148.201 219.234C148.201 219.234 141.899 223.377 140.278 227.52C140.278 227.52 150.362 235.086 157.385 241.932C164.588 248.597 171.791 247.156 167.829 241.571C163.868 235.807 156.665 222.836 156.665 222.836C156.665 222.836 152.163 227.52 148.201 219.234Z" fill="#111A2C"/>
<path d="M134.696 95.6557C132.715 97.9975 138.297 108.806 148.201 111.868C154.324 113.67 162.427 112.589 162.967 109.707C163.147 109.166 162.967 108.446 162.427 107.905C158.285 104.843 154.324 102.141 150.902 99.6188C144.059 96.0159 136.316 93.6741 134.696 95.6557Z" fill="#9FBFD4" style="mix-blend-mode:multiply"/>
<path d="M167.289 240.49C165.308 241.031 163.507 242.832 162.247 243.553C159.906 244.814 146.4 229.141 146.4 229.141C146.04 226.439 144.96 223.917 144.059 222.476C142.439 223.917 140.998 225.719 140.278 227.52C140.278 227.52 150.362 235.086 157.385 241.932C164.588 248.597 171.791 247.156 167.829 241.571C167.649 241.031 167.469 240.851 167.289 240.49Z" fill="#FFF6F8"/>
<path d="M184.216 57.1053C184.216 57.1053 188.178 52.2414 186.017 49.7194C184.756 48.2783 184.216 45.7563 184.936 43.9548C186.737 39.6314 188.718 35.1278 191.599 32.786L193.94 16.0327C193.94 16.0327 184.216 24.3193 175.212 34.5874C172.331 37.83 168.73 36.9293 166.929 36.9293C163.327 36.9293 160.266 58.006 178.634 58.006H178.814C182.775 58.006 179.534 59.6273 184.216 57.1053Z" fill="#FFBC82"/>
<path d="M184.576 45.576V45.3959C184.576 45.0356 184.756 44.4952 184.936 44.1349C185.657 42.5136 186.197 40.7122 187.097 39.2711L183.856 31.3448C183.856 31.1646 179.894 40.3519 184.576 45.576Z" fill="#DE9066"/>
<path d="M184.216 63.0498C184.216 63.0498 189.258 54.0427 186.197 49.8994C186.197 49.8994 186.017 48.4583 183.316 46.1164C175.392 41.6129 169.81 36.9292 169.81 36.9292C164.948 35.488 157.385 39.9916 156.124 41.0724C142.439 52.7817 142.799 58.3661 139.017 68.4541C139.017 68.4541 134.876 85.3875 127.853 91.3323C127.312 91.6925 144.059 112.049 159.186 111.688C163.507 111.508 165.488 109.166 165.488 109.166C169.27 98.538 171.431 94.755 175.392 88.45C183.135 75.6598 184.216 63.0498 184.216 63.0498Z" fill="#FC6A57"/>
<path d="M136.856 101.961C130.914 101.961 125.512 99.9792 121.73 96.016L122.27 95.4756C127.493 100.7 135.596 102.501 143.879 100.159C154.504 97.277 167.469 87.0089 172.871 67.013C175.572 56.5648 174.852 48.0981 170.53 41.9732C164.588 33.1462 153.603 31.8852 153.603 31.8852L153.783 30.9845C153.963 30.9845 165.128 32.4256 171.431 41.4328C175.933 47.9179 176.653 56.5648 173.952 67.1932C168.369 87.5493 154.864 97.9976 144.059 100.88C141.538 101.6 139.197 101.961 136.856 101.961Z" fill="#EDE92F"/>
<path d="M173.051 92.0528C172.691 89.8911 172.151 87.7294 171.791 85.928C168.009 71.6967 159.366 58.5463 156.665 59.6271C154.324 60.5278 156.845 72.4173 157.925 77.2811C160.446 86.8287 164.768 96.1961 168.369 101.24C169.99 97.6372 171.431 94.9351 173.051 92.0528Z" fill="#EEEEEE" style="mix-blend-mode:multiply"/>
<path d="M203.844 22.878C203.844 22.878 203.844 45.0356 193.94 43.5944C181.875 41.793 178.814 24.139 178.994 14.5915C178.994 10.0879 183.316 8.8269 187.817 7.74604C194.66 5.94462 204.024 10.4482 203.844 22.878Z" fill="#FFBC82"/>
<path d="M202.043 10.8086C199.522 6.30501 192.859 3.06244 185.837 3.78301C178.814 4.32344 174.312 9.36743 173.591 15.8526C172.691 26.481 180.975 28.6427 180.975 28.6427C180.975 28.6427 188.538 29.5434 192.859 16.393C203.124 19.2753 204.564 15.3121 202.043 10.8086Z" fill="#85321A"/>
<path d="M203.304 23.7788C203.304 23.7788 204.024 28.8228 204.744 30.6242C205.465 32.4257 204.744 33.8668 201.503 33.6867" fill="#FFBC82"/>
<path d="M198.622 34.9476C196.281 34.9476 194.66 32.6058 194.66 32.4256L194.84 32.2455C194.84 32.2455 197.001 35.3079 199.702 34.4072V34.5873C199.162 34.9476 198.982 34.9476 198.622 34.9476Z" fill="#29201D"/>
<path d="M178.904 24.97C177.322 26.004 177.142 28.5301 178.502 30.6122C179.862 32.6943 182.247 33.5439 183.829 32.5099C185.411 31.4759 185.591 28.9498 184.231 26.8678C182.871 24.7857 180.486 23.936 178.904 24.97Z" fill="#FFBC82"/>
<path d="M157.565 43.7747C155.224 45.2158 155.044 51.5208 156.304 54.2229C160.086 61.9691 166.569 94.755 171.611 98.7182C177.193 103.042 196.821 102.321 206.365 102.321L208.526 96.9167C208.526 96.9167 184.936 90.2515 179.174 90.7919C179.174 90.7919 171.251 35.6682 157.565 43.7747Z" fill="#FFBC82"/>
<path d="M170.35 49.7193C173.592 58.9066 178.994 77.6414 178.994 77.6414C178.994 77.6414 168.73 81.6046 162.427 79.4429L152.163 53.8626C150.362 49.1789 151.803 43.7746 155.944 40.8923C160.986 37.1093 168.369 43.7746 170.35 49.7193Z" fill="#FC6A57"/>
<path d="M176.653 32.6058L184.036 46.2967L177.553 51.1605L169.09 36.9293L176.653 32.6058Z" fill="#ED5541"/>
<path d="M185.656 44.6753L183.676 46.2966L184.216 52.0611L186.737 50.9803L185.656 44.6753Z" fill="#ED5541"/>
<path d="M184.936 44.1349L185.656 44.8555L184.576 45.7562C184.576 45.576 184.576 45.3959 184.936 44.1349Z" fill="#29201D"/>
<path d="M203.664 25.4C203.664 25.4 202.403 29.9036 200.243 31.5249C198.082 33.1462 194.66 31.3447 193.04 33.1462C193.04 33.1462 193.04 42.6937 198.082 42.3334C209.967 41.793 203.664 25.4 203.664 25.4Z" fill="white"/>
<path d="M198.622 39.091C195.381 39.2711 194.3 35.4881 193.76 32.6058C193.4 32.786 193.22 32.9661 193.04 33.1463C193.04 33.1463 193.04 42.6938 198.082 42.3335C203.664 41.9733 205.285 38.1903 205.285 34.2271C204.384 36.9293 202.584 38.9108 198.622 39.091Z" fill="#E6E6E6"/>
<path d="M195.741 33.8668C188.358 31.8853 182.235 25.0399 182.055 25.0399L182.595 24.6796C182.595 24.6796 188.718 31.3448 195.921 33.3264L195.741 33.8668Z" fill="white"/>
<path d="M215.189 96.3763C215.189 96.3763 227.074 98.5381 227.074 99.4388C227.254 100.52 227.434 110.247 227.434 110.247C227.434 110.247 224.553 110.608 222.212 102.141C222.212 102.141 211.047 105.383 203.484 102.321L206.725 96.5565L215.189 96.3763Z" fill="#FFBC82"/>
<path d="M205.465 10.2681C206.005 3.9631 192.679 -0.720613 184.756 0.1801C176.833 0.900671 171.791 7.02552 171.07 14.7717C169.81 27.3816 179.174 29.7235 179.174 29.7235C179.174 29.7235 182.775 28.6426 187.817 13.1504C198.982 16.3929 204.924 16.2128 205.465 10.2681Z" fill="#FC6A57"/>
<path d="M182.775 19.9958C182.595 20.3561 182.055 20.7163 181.695 20.5362L175.392 18.1943C174.852 18.0142 174.672 17.4738 174.852 17.1135C175.032 16.7532 175.572 16.3929 175.933 16.5731L182.235 18.9149C182.775 19.0951 182.955 19.6355 182.775 19.9958Z" fill="#F7EBD5"/>
<path d="M183.856 17.2936C183.676 17.6539 183.136 18.0142 182.775 17.8341L176.473 15.4922C176.113 15.3121 175.752 14.7716 175.933 14.4113C176.113 14.0511 176.653 13.6908 177.013 13.8709L183.316 16.2128C183.856 16.3929 184.036 16.9333 183.856 17.2936Z" fill="#F7EBD5"/>
<path d="M184.936 14.5915C184.756 14.9518 184.216 15.312 183.856 15.1319L177.553 12.79C177.193 12.6099 176.833 12.0695 177.013 11.7092C177.193 11.3489 177.733 10.9886 178.093 11.1688L184.396 13.5106C184.756 13.6908 184.936 14.2312 184.936 14.5915Z" fill="#F7EBD5"/>
<path d="M146.76 133.306C140.818 130.423 137.937 129.162 135.956 126.46C124.251 110.247 146.58 72.057 160.086 48.9987C163.507 43.054 166.028 39.271 167.469 36.749C162.787 36.749 157.205 40.1717 156.124 41.0724C142.439 52.7817 142.799 58.3661 139.017 68.4541C139.017 68.4541 134.876 85.3876 127.853 91.3323C127.673 91.5124 129.473 93.8543 132.355 96.7365L128.753 103.222C122.991 113.31 124.611 138.71 136.136 140.511C155.044 143.574 170.89 145.915 182.775 146.996C178.273 149.879 172.511 155.823 168.73 167.533C166.208 175.459 162.967 184.286 160.086 192.032C163.687 188.609 166.929 184.466 169.27 179.602C172.151 173.477 171.791 170.055 176.653 161.047C183.496 148.257 189.258 145.555 187.817 142.132C185.296 136.368 168.009 143.393 146.76 133.306Z" fill="#DFDFDF" style="mix-blend-mode:multiply"/>
<path d="M161.641 31.6089L99.0195 12.8545L76.244 88.9608L138.865 107.715L161.641 31.6089Z" fill="#D83B29"/>
<path d="M119.569 83.5862C131.603 83.5862 141.358 73.8273 141.358 61.789C141.358 49.7507 131.603 39.9917 119.569 39.9917C107.536 39.9917 97.7803 49.7507 97.7803 61.789C97.7803 73.8273 107.536 83.5862 119.569 83.5862Z" fill="#FFF6F8"/>
<path d="M125.872 72.0571L106.784 65.9322C104.983 65.3918 104.083 63.4102 104.623 61.7889L130.014 70.0755C129.473 71.6968 127.673 72.5975 125.872 72.0571Z" fill="#FFAD4B"/>
<path d="M127.673 69.1748L107.144 62.5096C105.884 62.1493 104.983 60.7081 105.524 59.267C105.884 58.006 107.324 57.1053 108.765 57.6457L129.293 64.311C130.554 64.6713 131.454 66.1124 130.914 67.5536C130.554 68.8146 129.113 69.5351 127.673 69.1748Z" fill="#D83B29"/>
<path d="M107.961 56.1407L106.217 56.5907L108.512 65.4867L110.255 65.0367L107.961 56.1407Z" fill="#85321A"/>
<path d="M112.626 57.5753L110.883 58.0253L113.177 66.9213L114.921 66.4713L112.626 57.5753Z" fill="#85321A"/>
<path d="M117.292 59.0094L115.548 59.4594L117.843 68.3554L119.586 67.9054L117.292 59.0094Z" fill="#85321A"/>
<path d="M122.005 60.6188L120.262 61.069L122.557 69.965L124.3 69.5148L122.005 60.6188Z" fill="#85321A"/>
<path d="M126.497 62.0983L124.753 62.5485L127.048 71.4445L128.792 70.9943L126.497 62.0983Z" fill="#85321A"/>
<path d="M132.175 66.6528C134.155 59.6272 129.834 52.2414 122.631 49.8995C115.248 47.5577 107.504 51.1605 104.983 57.8258L132.175 66.6528Z" fill="#FFAD4B"/>
<path d="M124.981 59.4685C126.581 61.2404 128.596 62.0281 129.482 61.2279C130.368 60.4276 129.788 58.3424 128.189 56.5705C126.589 54.7985 124.574 54.0108 123.688 54.8111C122.802 55.6113 123.381 57.6965 124.981 59.4685Z" fill="#FFC94B"/>
<path d="M109.845 75.1195C98.3205 54.9435 96.6999 34.2271 97.2401 18.5547L76.1714 88.9905L138.837 107.725L139.197 106.825C130.014 99.9792 118.489 90.4316 109.845 75.1195Z" fill="#EEEEEE" style="mix-blend-mode:multiply"/>
<path d="M220.951 257.964C209.787 250.038 207.085 235.987 205.825 223.737C190.339 237.788 184.036 259.586 191.239 279.401L231.936 262.648C227.974 261.927 224.373 260.486 220.951 257.964Z" fill="#EEEEEE" style="mix-blend-mode:multiply"/>
<path d="M178.454 7.20565C178.634 4.14323 181.155 1.80137 183.135 0.360229C176.113 1.80137 171.611 7.38579 170.89 14.7716C169.63 27.3816 178.994 29.7235 178.994 29.7235C178.994 29.7235 181.695 29.0029 185.657 19.0951C183.496 14.9518 178.093 12.2496 178.454 7.20565Z" fill="#EEEEEE" style="mix-blend-mode:multiply"/>
</svg>
