<svg width="375" height="461" viewBox="0 0 375 461" fill="none" xmlns="http://www.w3.org/2000/svg">
<path d="M375 0V374.127C323 413.547 257.9 437 187.6 437C117.2 437 53 413.447 0 373.927V0H375Z" fill="#FF5C01" fill-opacity="0.2"/>
<g clip-path="url(#clip0_11_1296)">
<path d="M187.792 461C247.627 461 296.133 457.592 296.133 453.387C296.133 449.183 247.627 445.774 187.792 445.774C127.957 445.774 79.4509 449.183 79.4509 453.387C79.4509 457.592 127.957 461 187.792 461Z" fill="#F1F1F1"/>
<path d="M299.881 165.098L255.095 156L253.794 162.127L253.98 162.313L234.096 257.38L240.414 258.68L260.298 163.427L298.58 171.226L299.881 165.098Z" fill="#FFF6F8"/>
<path d="M261.599 163.798L260.298 163.427L259.741 165.841C257.697 163.798 255.838 161.942 254.352 159.899L255.095 156.371C256.767 158.785 258.997 161.199 261.599 163.798Z" fill="#FF4A32"/>
<path d="M267.36 164.912L264.015 164.17C262.714 161.756 261.785 159.342 260.856 157.114L264.015 157.671C264.944 160.085 265.873 162.499 267.36 164.912Z" fill="#FF4A32"/>
<path d="M276.094 166.769L272.749 166.027C271.448 163.613 270.333 161.199 269.404 158.971L272.563 159.528C273.493 161.756 274.793 164.17 276.094 166.769Z" fill="#FF4A32"/>
<path d="M285.014 168.626L281.483 167.883C279.997 165.47 278.882 163.056 277.953 160.642L281.298 161.385C282.227 163.613 283.528 166.027 285.014 168.626Z" fill="#FF4A32"/>
<path d="M294.12 170.483L290.403 169.74C288.917 167.141 287.616 164.727 286.501 162.499L289.846 163.241C290.961 165.47 292.448 167.883 294.12 170.483Z" fill="#FF4A32"/>
<path d="M299.509 166.398L298.766 170.483C297.465 168.255 296.35 166.212 295.421 164.17L298.766 164.913C298.952 165.47 299.138 165.841 299.509 166.398Z" fill="#FF4A32"/>
<path d="M258.44 171.783L257.697 174.939C255.652 173.082 253.98 171.04 252.307 169.183L253.051 165.655C254.723 167.698 256.396 169.74 258.44 171.783Z" fill="#FF4A32"/>
<path d="M256.582 180.881L255.838 184.037C253.794 182.181 252.122 180.138 250.449 178.281L251.192 174.753C252.865 176.796 254.537 178.838 256.582 180.881Z" fill="#FF4A32"/>
<path d="M254.723 189.979L254.166 193.136C252.122 191.093 250.449 189.236 248.777 187.38L249.52 183.852C251.007 185.894 252.679 187.937 254.723 189.979Z" fill="#FF4A32"/>
<path d="M252.865 199.077L252.307 202.234C250.263 200.377 248.591 198.334 246.918 196.478L247.662 192.95C248.962 194.992 250.821 197.035 252.865 199.077Z" fill="#FF4A32"/>
<path d="M250.821 208.175L250.077 211.332C248.033 209.29 246.361 207.433 244.688 205.576L245.432 202.048C247.104 204.091 248.777 206.133 250.821 208.175Z" fill="#FF4A32"/>
<path d="M248.777 218.016L248.219 220.43C246.175 218.573 244.502 216.531 243.016 214.674L243.573 211.703C244.874 213.56 246.361 215.417 248.033 217.274C248.405 217.459 248.591 217.831 248.777 218.016Z" fill="#FF4A32"/>
<path d="M247.104 226.372L246.361 229.528C244.317 227.672 242.644 225.629 240.972 223.772L241.715 220.245C243.387 222.287 245.06 224.329 247.104 226.372Z" fill="#FF4A32"/>
<path d="M245.06 235.656L244.317 238.627V238.812C244.317 238.812 244.317 238.812 244.317 238.627C242.644 236.77 240.786 234.913 239.113 233.242C238.927 233.056 238.927 233.056 238.742 232.871L239.671 229.343L239.857 229.528C241.343 231.571 243.016 233.428 245.06 235.656C245.06 235.656 245.06 235.47 245.06 235.656Z" fill="#FF4A32"/>
<path d="M243.202 244.754L242.458 247.91C240.6 246.054 238.927 244.197 237.255 242.34C237.069 242.154 237.069 242.154 236.883 241.969L237.812 238.441L237.998 238.627C239.485 240.669 241.157 242.526 243.202 244.754C243.202 244.754 243.202 244.568 243.202 244.754Z" fill="#FF4A32"/>
<path d="M258.626 156.743L237.812 249.582L235.768 249.21L237.069 242.34L236.883 241.969L237.812 238.627L237.998 238.441L238.927 233.242L238.742 232.871L239.671 229.528L239.857 229.343L240.972 223.772L241.715 220.245L243.016 214.674L243.573 211.703L243.759 211.146L244.874 205.576L245.617 202.048L246.732 196.478L247.476 192.95L248.777 187.38L249.334 183.852L250.635 178.281L251.378 174.753L252.493 169.183L253.237 165.655L253.98 162.313L253.794 162.127L254.352 159.899L255.095 156.371V156L258.626 156.743Z" fill="#9FBFD4" style="mix-blend-mode:multiply"/>
<path d="M290.187 394.342H213.995L198.199 227.789H305.982L290.187 394.342Z" fill="#FFF6F8"/>
<path d="M299.292 297.975C295.762 295.747 291.859 294.261 287.585 293.704C273.09 292.219 267.886 305.402 255.25 302.617C238.525 298.903 240.383 273.837 219.198 253.598C213.437 248.027 206.561 243.571 199.5 240.043L206.747 316.357C219.198 325.826 236.109 334.925 253.206 331.025C271.417 326.941 274.576 311.344 289.815 311.529C292.602 311.529 295.39 312.272 297.992 313.2L299.292 297.975Z" fill="#FF4A32"/>
<path d="M198.942 233.916H305.425L305.982 227.789H198.199L198.942 233.916Z" fill="#DEDEDE"/>
<path d="M308.584 217.948H194.11V230.388H308.584V217.948Z" fill="#FFF6F8"/>
<path d="M281.081 211.078H221.614V220.362H281.081V211.078Z" fill="#FFF6F8"/>
<path d="M251.533 383.572C224.773 352.75 226.817 315.057 230.534 248.213C230.906 240.415 232.021 230.945 238.896 225.746C243.914 221.847 251.161 220.919 250.976 219.062C250.79 217.576 245.401 218.319 242.241 214.977C241.312 213.863 240.755 212.563 240.383 211.263H221.614V218.319H194.11V230.759H198.57L213.995 394.527H262.683C258.966 391.371 255.25 387.843 251.533 383.572Z" fill="#9FBFD4" style="mix-blend-mode:multiply"/>
<path d="M142.263 317.099L164.563 231.873L174.97 234.472L178.686 236.7L156.572 321.926L146.165 319.327L142.263 317.099Z" fill="#E6C82E"/>
<path d="M142.303 317.205L152.734 319.915L174.943 234.558L164.512 231.848L142.303 317.205Z" fill="#D4942A"/>
<path d="M175.713 245.985C174.412 253.784 171.439 261.396 170.695 261.025C170.695 261.025 170.51 260.839 170.51 259.168C171.067 250.813 175.341 240.043 176.27 240.415C176.642 240.6 176.27 243.2 175.713 245.985Z" fill="#EDE92F"/>
<path d="M169.952 264.738C170.138 266.595 168.837 270.309 168.094 271.237C168.094 271.423 167.908 271.423 167.536 271.237C166.235 270.309 168.465 264.738 169.395 263.81C169.766 263.439 169.952 263.996 169.952 264.738Z" fill="#EDE92F"/>
<path d="M151.926 298.161L141.705 210.521L152.483 209.406L156.758 209.964L166.978 297.603L156.2 298.718L151.926 298.161Z" fill="#E6C82E"/>
<path d="M151.867 298.248L162.573 297.003L152.369 209.397L141.662 210.642L151.867 298.248Z" fill="#D4942A"/>
<path d="M157.315 219.619C158.802 227.232 158.802 235.402 158.059 235.587C158.059 235.587 157.873 235.402 157.315 233.916C154.899 225.932 154.899 214.42 155.829 214.42C156.2 214.42 156.758 217.019 157.315 219.619Z" fill="#EDE92F"/>
<path d="M158.802 239.301C159.731 240.972 159.731 245.057 159.359 245.985C159.359 246.171 159.174 246.356 158.802 246.171C157.315 245.614 157.315 239.858 157.873 238.744C158.059 238.187 158.43 238.744 158.802 239.301Z" fill="#EDE92F"/>
<path d="M101.008 291.848L86.5126 204.765L75.92 206.621L71.8317 208.478L86.5126 295.375L97.1051 293.519L101.008 291.848Z" fill="#D4942A"/>
<path d="M86.5662 204.839L75.9366 206.623L90.5631 293.603L101.193 291.819L86.5662 204.839Z" fill="#E6C82E"/>
<path d="M80.7517 213.491C80.7517 221.476 84.2826 229.088 85.7693 228.717C85.9551 228.717 86.3268 228.531 86.6984 226.675C88.5568 217.948 83.3534 207.364 81.6809 207.735C80.5659 208.107 80.5659 210.706 80.7517 213.491Z" fill="#EDE92F"/>
<path d="M85.7693 232.616C84.4684 234.659 86.1409 238.372 87.4418 239.115C87.6276 239.301 87.9993 239.301 88.5568 239.115C91.5301 238.001 88.9284 232.431 87.4418 231.688C86.6984 231.131 86.3268 231.874 85.7693 232.616Z" fill="#EDE92F"/>
<path d="M104.724 274.394L99.7062 186.197L110.299 185.64L114.573 186.568L119.59 274.579L108.812 275.136L104.724 274.394Z" fill="#E6C82E"/>
<path d="M104.603 274.39L115.364 273.783L110.385 185.727L99.624 186.334L104.603 274.39Z" fill="#D4942A"/>
<path d="M114.573 196.223C115.688 204.022 115.131 212.192 114.388 212.192C114.388 212.192 114.202 212.006 113.644 210.335C111.6 202.165 112.529 190.653 113.273 190.839C113.83 190.839 114.202 193.624 114.573 196.223Z" fill="#EDE92F"/>
<path d="M114.945 215.905C115.874 217.576 115.503 221.661 115.131 222.59C115.131 222.775 114.945 222.961 114.573 222.775C113.087 222.218 113.458 216.462 114.016 215.163C114.388 214.791 114.573 215.348 114.945 215.905Z" fill="#EDE92F"/>
<path d="M140.961 280.892L125.351 194.181L135.944 192.324L140.218 192.695L156.014 279.407L145.421 281.263L140.961 280.892Z" fill="#E6C82E"/>
<path d="M140.933 280.975L151.54 279.065L135.881 192.27L125.274 194.18L140.933 280.975Z" fill="#D4942A"/>
<path d="M141.519 202.165C143.564 209.778 143.935 217.948 143.378 217.948C143.378 217.948 143.006 217.948 142.449 216.277C139.475 208.478 138.918 196.966 139.847 196.966C140.033 196.966 140.776 199.566 141.519 202.165Z" fill="#EDE92F"/>
<path d="M144.121 221.847C145.236 223.518 145.422 227.417 145.05 228.531C145.05 228.717 144.864 228.903 144.679 228.717C143.192 228.346 142.82 222.59 143.192 221.29C143.378 220.733 143.749 221.29 144.121 221.847Z" fill="#EDE92F"/>
<path d="M76.8492 326.382L71.8317 238.371L82.6101 237.628L86.8842 238.557L91.7159 326.568L81.1234 327.125L76.8492 326.382Z" fill="#E6C82E"/>
<path d="M76.8128 326.283L87.574 325.676L82.595 237.62L71.8338 238.227L76.8128 326.283Z" fill="#D4942A"/>
<path d="M86.8842 248.213C87.9992 256.012 87.4417 264.181 86.6984 264.181C86.6984 264.181 86.5126 263.996 85.9551 262.325C83.9109 254.155 84.8401 242.643 85.5834 242.829C86.1409 243.014 86.5126 245.614 86.8842 248.213Z" fill="#EDE92F"/>
<path d="M87.0701 268.081C87.9992 269.752 87.6276 273.837 87.2559 274.765C87.2559 274.951 87.0701 275.136 86.6984 274.951C85.2117 274.394 85.5834 268.638 86.1409 267.338C86.5126 266.781 86.8842 267.338 87.0701 268.081Z" fill="#EDE92F"/>
<path d="M153.599 330.282L147.838 242.457L137.059 243.014L132.971 244.499L138.732 332.51L149.51 331.768L153.599 330.282Z" fill="#D4942A"/>
<path d="M147.885 242.38L137.131 243.091L142.956 331.094L153.711 330.383L147.885 242.38Z" fill="#E6C82E"/>
<path d="M141.148 250.441C140.404 258.24 143.006 266.224 144.493 266.224C144.679 266.224 145.05 266.038 145.608 264.367C148.209 256.012 144.307 244.685 142.449 245.057C141.705 245.057 141.519 247.656 141.148 250.441Z" fill="#EDE92F"/>
<path d="M144.493 269.937C143.006 271.794 144.307 275.693 145.422 276.622C145.608 276.808 145.794 276.993 146.537 276.808C149.51 275.879 147.652 270.309 146.165 269.195C145.422 268.638 145.05 269.38 144.493 269.937Z" fill="#EDE92F"/>
<path d="M128.697 280.521L129.44 192.324H118.848L114.573 193.252L113.644 281.449L124.423 281.635L128.697 280.521Z" fill="#D4942A"/>
<path d="M129.487 192.378L118.709 192.277L117.876 280.474L128.655 280.575L129.487 192.378Z" fill="#E6C82E"/>
<path d="M122.378 199.937C121.078 207.735 123.122 215.905 124.609 215.905C124.794 215.905 125.166 215.72 125.909 214.048C129.254 205.879 126.095 194.367 124.237 194.552C123.122 194.552 122.75 197.152 122.378 199.937Z" fill="#EDE92F"/>
<path d="M124.051 219.619C122.564 221.29 123.308 225.375 124.423 226.303C124.609 226.489 124.794 226.675 125.538 226.489C128.697 225.932 127.21 219.99 125.724 218.876C125.166 218.319 124.609 219.062 124.051 219.619Z" fill="#EDE92F"/>
<path d="M132.414 299.275L145.979 212.192L135.387 210.521L131.113 210.892L117.361 297.975L128.139 299.646L132.414 299.275Z" fill="#D4942A"/>
<path d="M146.044 212.247L135.396 210.58L121.731 297.709L132.379 299.377L146.044 212.247Z" fill="#E6C82E"/>
<path d="M137.803 218.505C135.387 225.932 136.13 234.287 137.617 234.659C137.803 234.659 138.174 234.659 139.104 232.988C143.564 225.375 142.077 213.491 140.219 213.306C139.475 213.306 138.732 215.905 137.803 218.505Z" fill="#EDE92F"/>
<path d="M136.688 238.372C134.829 239.858 135.201 243.943 136.13 245.057C136.316 245.242 136.502 245.428 137.059 245.428C140.219 245.242 139.661 239.301 138.36 238.001C137.989 237.258 137.245 237.815 136.688 238.372Z" fill="#EDE92F"/>
<path d="M106.768 288.505L86.5126 202.536L97.1051 200.123L101.379 200.308L121.635 286.092L111.043 288.505H106.768Z" fill="#E6C82E"/>
<path d="M106.685 288.491L117.179 286.032L97.0267 200.164L86.5328 202.622L106.685 288.491Z" fill="#D4942A"/>
<path d="M103.052 209.778C105.468 217.205 106.397 225.375 105.653 225.561C105.653 225.561 105.282 225.561 104.724 223.889C101.379 216.277 100.078 204.765 101.008 204.765C101.379 204.579 102.308 207.178 103.052 209.778Z" fill="#EDE92F"/>
<path d="M106.768 229.088C107.883 230.574 108.441 234.659 108.069 235.587C108.069 235.773 107.883 235.959 107.698 235.959C106.211 235.587 105.468 229.831 105.839 228.531C106.025 228.16 106.397 228.717 106.768 229.088Z" fill="#EDE92F"/>
<path d="M100.45 309.486L114.202 222.403L103.609 220.732L99.3351 221.104L85.5834 308.186L96.1759 309.857L100.45 309.486Z" fill="#D4942A"/>
<path d="M114.289 222.289L103.641 220.622L89.9766 307.752L100.625 309.419L114.289 222.289Z" fill="#E6C82E"/>
<path d="M106.025 228.717C103.609 236.144 104.353 244.5 105.839 244.871C106.025 244.871 106.397 244.871 107.326 243.2C111.786 235.587 110.299 223.704 108.441 223.518C107.698 223.518 106.768 226.118 106.025 228.717Z" fill="#EDE92F"/>
<path d="M104.91 248.399C103.052 249.884 103.423 253.969 104.353 255.083C104.538 255.269 104.724 255.455 105.282 255.455C108.441 255.269 107.883 249.327 106.583 248.028C106.025 247.47 105.468 248.028 104.91 248.399Z" fill="#EDE92F"/>
<path d="M160.474 406.225H80.0084L67 278.479H173.483L160.474 406.225Z" fill="#FF4A32"/>
<path d="M160.474 405.482C136.502 391.742 109.928 371.318 99.1493 338.267C91.9018 315.986 94.1318 294.633 95.0609 278.479H67L80.0084 406.225H160.474V405.482Z" fill="#E8312E"/>
<path d="M120.149 379.673C132.362 379.673 142.263 364.71 142.263 346.251C142.263 327.793 132.362 312.829 120.149 312.829C107.935 312.829 98.0343 327.793 98.0343 346.251C98.0343 364.71 107.935 379.673 120.149 379.673Z" fill="#FFF6F8"/>
<path d="M120.149 379.673C121.635 379.673 123.308 379.487 124.794 378.93C113.83 367.975 104.724 354.792 99.3351 338.267C99.1493 337.896 99.1493 337.524 98.9634 337.153C98.4059 340.124 98.0343 343.095 98.0343 346.251C98.0343 364.819 107.883 379.673 120.149 379.673Z" fill="#FFDCCB"/>
<path d="M257.108 452.087H115.317C103.423 452.087 93.9459 442.432 93.9459 430.734V429.063H278.479V430.734C278.479 442.432 268.816 452.087 257.108 452.087Z" fill="#FFAD4B"/>
<path d="M278.479 429.063H93.9459V438.533C96.1759 439.09 99.7068 435.933 105.468 435.376C116.06 434.448 119.219 443.918 129.626 443.361C137.617 442.989 137.431 437.605 145.236 437.419C155.271 437.233 158.43 446.517 167.722 445.403C174.04 444.66 173.855 440.204 179.987 439.461C190.208 438.347 194.854 449.488 203.588 447.445C208.977 446.146 208.234 441.689 213.809 440.39C222.171 438.533 226.817 448.188 234.251 446.331C240.011 444.846 239.268 438.162 245.029 436.676C253.577 434.262 262.497 447.445 266.957 444.66C269.745 442.804 267.143 436.862 270.674 434.448C272.904 432.963 276.063 434.262 278.479 434.819V429.063Z" fill="#DE7441"/>
<path d="M93.9459 430.549V441.504C93.9459 447.445 98.7776 452.087 104.538 452.087H166.979C164.005 450.973 161.589 449.488 160.846 447.074C159.545 442.432 166.235 439.276 165.492 435.748C164.749 432.406 157.501 430.177 147.094 429.063H105.653C101.565 429.435 97.6626 429.992 93.9459 430.549Z" fill="#DE7441"/>
<path d="M94.6893 422.565C94.3176 423.493 90.4151 432.034 93.0168 434.448C95.0609 436.305 98.7776 432.22 105.282 431.848C115.874 430.92 119.034 440.39 129.44 439.833C137.431 439.461 137.245 434.077 145.05 433.891C155.085 433.705 158.244 442.989 167.536 441.875C173.855 441.132 173.669 436.676 179.801 435.933C190.022 434.819 194.668 445.96 203.402 443.918C208.791 442.618 208.048 438.162 213.623 436.862C221.986 435.005 226.631 444.66 234.065 442.803C239.826 441.318 239.082 434.634 244.843 433.148C253.391 430.734 262.312 443.918 266.772 441.132C269.559 439.276 266.957 433.334 270.488 430.92C274.019 428.506 279.408 432.777 281.267 430.92C283.125 428.878 278.851 422.193 278.665 421.822C264.913 400.84 108.255 393.042 94.6893 422.565Z" fill="#7FCF33"/>
<path d="M94.6893 422.565C94.5034 423.122 93.0168 426.092 92.4593 429.063C92.6451 429.435 92.8309 429.806 93.0168 429.992C95.0609 431.848 98.7776 427.764 105.282 427.392C115.874 426.464 119.034 435.933 129.44 435.376C137.431 435.005 137.245 429.62 145.05 429.435C155.085 429.249 158.244 438.533 167.536 437.419C173.855 436.676 173.669 432.22 179.801 431.477C190.022 430.363 194.668 441.504 203.402 439.461C208.791 438.162 208.048 433.705 213.623 432.406C221.986 430.549 226.631 440.204 234.065 438.347C239.826 436.862 239.082 430.177 244.843 428.692C253.391 426.278 262.312 439.461 266.772 436.676C269.559 434.819 266.957 428.878 270.488 426.464C274.019 424.236 279.222 428.135 281.081 426.65C280.152 424.236 278.665 421.822 278.479 421.636C264.913 400.84 108.255 393.042 94.6893 422.565Z" fill="#76BF2F"/>
<path d="M278.479 421.636C274.391 416.066 260.639 411.424 242.427 408.267C201.915 406.411 140.776 408.453 106.954 412.724C100.822 415.323 96.5476 418.665 94.6893 422.565C94.5034 422.936 93.9459 424.05 93.3884 425.535C94.3176 425.907 95.4326 426.093 96.1759 426.278C103.423 427.949 106.954 426.464 118.476 427.021C124.609 427.392 125.909 427.949 132.228 428.692C144.679 429.992 149.51 429.063 163.634 428.878C177.571 428.878 175.341 429.992 198.57 430.734C210.65 431.106 218.083 431.477 228.304 430.92C237.224 430.549 240.197 429.992 243.171 429.435C243.728 429.063 244.286 428.878 244.843 428.692C246.144 428.321 247.445 428.321 248.746 428.506C250.976 428.321 253.763 427.949 257.851 427.764C263.241 427.578 268.816 427.392 274.391 424.05C275.506 423.864 276.992 422.75 278.479 421.636Z" fill="#549E27"/>
<path d="M164.005 440.761C166.235 441.875 168.465 440.947 169.395 440.575C171.81 439.647 173.483 437.419 173.297 437.233C173.111 437.047 171.996 438.347 169.766 438.904C165.678 440.018 162.147 437.604 161.775 438.162C161.404 438.719 162.519 440.018 164.005 440.761Z" fill="#A6F03A"/>
<path d="M198.57 442.432C200.8 443.546 203.03 442.618 203.96 442.246C206.375 441.318 208.048 439.09 207.862 438.904C207.676 438.719 206.561 440.018 204.331 440.575C200.243 441.689 196.712 439.276 196.34 439.833C195.969 440.39 197.27 441.689 198.57 442.432Z" fill="#A6F03A"/>
<path d="M229.047 441.318C231.277 442.432 233.507 441.504 234.436 441.132C236.852 440.204 238.525 437.976 238.339 437.79C238.153 437.605 237.038 438.904 234.808 439.461C230.72 440.575 227.189 438.162 226.817 438.719C226.446 439.276 227.561 440.575 229.047 441.318Z" fill="#A6F03A"/>
<path d="M264.356 439.647C261.94 439.833 260.082 438.347 259.338 437.79C257.294 436.119 256.365 433.705 256.737 433.52C256.922 433.334 257.666 435.005 259.524 436.119C263.055 438.533 267.143 437.419 267.329 438.162C267.515 438.904 265.842 439.647 264.356 439.647Z" fill="#A6F03A"/>
<path d="M279.408 429.992C277.736 430.549 276.249 429.62 275.692 429.435C274.019 428.506 273.09 427.021 273.276 427.021C273.462 426.835 274.205 427.764 275.506 428.506C278.293 429.62 280.895 428.321 281.081 428.878C281.452 428.878 280.337 429.62 279.408 429.992Z" fill="#A6F03A"/>
<path d="M204.331 412.538C204.331 409.01 181.288 406.039 153.041 406.039C124.794 406.039 101.751 409.01 101.751 412.538C101.751 413.652 101.751 417.18 101.751 418.294C101.751 421.822 124.794 424.793 153.041 424.793C181.288 424.793 204.331 421.822 204.331 418.294C204.331 417.366 204.331 413.652 204.331 412.538Z" fill="#FF4A32"/>
<path d="M195.597 420.151C191.88 421.822 186.491 420.894 186.305 420.151C185.934 419.037 197.084 416.623 198.199 417.737C198.756 418.108 197.084 419.408 195.597 420.151Z" fill="#FFF6F8"/>
<path d="M153.041 419.037C181.368 419.037 204.331 416.127 204.331 412.538C204.331 408.949 181.368 406.039 153.041 406.039C124.714 406.039 101.751 408.949 101.751 412.538C101.751 416.127 124.714 419.037 153.041 419.037Z" fill="#E0412C"/>
<path d="M181.288 422.008C181.66 422.75 182.775 422.936 183.704 422.379C184.261 422.008 184.633 421.079 184.447 420.336C184.261 419.594 183.518 419.222 182.775 419.222C181.66 419.222 180.73 421.079 181.288 422.008Z" fill="#FFF6F8"/>
<path d="M202.845 411.053C202.845 411.053 203.03 411.053 203.03 411.238C203.03 411.238 203.03 411.053 202.845 411.053Z" fill="#BF3930"/>
<path d="M203.402 411.424C203.402 411.424 203.588 411.424 203.588 411.61C203.588 411.424 203.588 411.424 203.402 411.424Z" fill="#BF3930"/>
<path d="M202.101 410.681C202.287 410.681 202.287 410.681 202.473 410.867C202.287 410.867 202.287 410.867 202.101 410.681Z" fill="#BF3930"/>
<path d="M201.358 410.496C201.544 410.496 201.544 410.496 201.73 410.681C201.544 410.496 201.544 410.496 201.358 410.496Z" fill="#BF3930"/>
<path d="M200.429 410.124C200.615 410.124 200.615 410.124 200.8 410.31C200.615 410.124 200.429 410.124 200.429 410.124Z" fill="#BF3930"/>
<path d="M166.235 418.851C166.421 419.965 166.793 423.493 166.979 424.607C188.535 423.864 204.331 421.265 204.331 418.48C204.331 417.366 204.331 413.838 204.331 412.724C204.331 415.509 188.164 418.108 166.235 418.851Z" fill="#DB372B"/>
<path d="M203.588 411.61L203.774 411.795C203.774 411.61 203.774 411.61 203.588 411.61Z" fill="#E0412C"/>
<path d="M201.73 410.496C201.915 410.496 202.101 410.681 202.287 410.681C202.101 410.681 201.915 410.681 201.73 410.496Z" fill="#E0412C"/>
<path d="M199.5 409.939C199.871 409.939 200.057 410.124 200.429 410.124C200.057 409.939 199.871 409.939 199.5 409.939Z" fill="#E0412C"/>
<path d="M200.8 410.124C200.986 410.124 201.172 410.31 201.358 410.31C201.172 410.31 200.986 410.31 200.8 410.124Z" fill="#E0412C"/>
<path d="M203.96 411.795L204.145 411.981C204.145 411.981 204.145 411.981 203.96 411.795Z" fill="#E0412C"/>
<path d="M203.216 411.238C203.402 411.238 203.402 411.424 203.588 411.424C203.402 411.424 203.216 411.238 203.216 411.238Z" fill="#E0412C"/>
<path d="M202.473 410.867C202.659 410.867 202.659 411.053 202.845 411.053C202.659 411.053 202.659 410.867 202.473 410.867Z" fill="#E0412C"/>
<path d="M204.331 412.167C204.145 412.167 204.145 412.167 204.331 412.167C204.145 411.981 204.145 411.981 204.145 411.795C204.145 411.795 204.145 411.795 203.96 411.61L203.774 411.424C203.774 411.424 203.588 411.424 203.588 411.238C203.402 411.238 203.402 411.053 203.216 411.053C203.216 411.053 203.03 411.053 203.03 410.867C202.845 410.867 202.845 410.681 202.659 410.681C202.473 410.681 202.473 410.681 202.287 410.496C202.101 410.496 201.915 410.31 201.73 410.31C201.544 410.31 201.544 410.31 201.358 410.124C201.172 410.124 200.986 409.939 200.8 409.939C200.615 409.939 200.615 409.939 200.429 409.753C200.243 409.753 199.871 409.567 199.5 409.567H199.314C179.615 412.167 165.864 415.88 166.235 418.665C188.164 417.923 204.331 415.509 204.331 412.352C204.331 412.538 204.331 412.352 204.331 412.167Z" fill="#BF3930"/>
<path d="M271.975 409.939C271.603 406.411 248.374 405.482 220.127 408.082C191.88 410.496 169.395 415.509 169.952 419.037C170.138 420.151 170.51 423.679 170.695 424.793C171.067 428.321 194.296 429.249 222.543 426.65C250.79 424.236 273.276 419.222 272.718 415.695C272.532 414.58 272.161 410.867 271.975 409.939Z" fill="#FF4A32"/>
<path d="M264.356 418.108C261.011 419.965 255.436 419.594 255.064 418.851C254.506 417.737 265.471 414.395 266.586 415.509C267.143 415.88 265.656 417.366 264.356 418.108Z" fill="#FFF6F8"/>
<path d="M271.975 409.939C272.347 413.466 249.861 418.294 221.8 420.894C193.553 423.307 170.51 422.565 169.952 419.037C169.58 415.509 192.066 410.681 220.127 408.082C248.374 405.482 271.603 406.411 271.975 409.939Z" fill="#E0412C"/>
<path d="M250.232 421.265C250.604 422.008 251.905 422.008 252.648 421.451C253.02 421.079 253.577 420.151 253.206 419.408C252.834 418.665 252.091 418.294 251.533 418.48C250.232 418.48 249.675 420.336 250.232 421.265Z" fill="#FFF6F8"/>
<path d="M213.065 410.124C213.065 410.124 180.359 413.095 178.315 416.437C176.27 419.779 198.756 419.965 211.207 419.594C223.658 419.222 216.41 417.366 212.88 415.323C209.535 413.095 222.357 409.381 213.065 410.124Z" fill="#DB372B"/>
<path opacity="0.39" d="M220.313 407.896C213.251 408.453 206.561 409.196 200.615 410.124C192.995 407.71 174.598 406.039 153.041 406.039C124.794 406.039 101.751 409.01 101.751 412.538C101.751 414.58 108.998 416.252 120.334 417.551H248.002C262.683 415.138 272.347 412.167 272.161 409.939C271.603 406.411 248.374 405.482 220.313 407.896Z" fill="#85321A"/>
<path d="M261.568 413.281H111.972C102.123 413.281 94.3176 405.297 94.3176 395.641C94.3176 385.8 102.308 378.002 111.972 378.002H261.568C271.417 378.002 279.222 385.986 279.222 395.641C279.222 405.297 271.417 413.281 261.568 413.281Z" fill="#D64F2A"/>
<path d="M263.798 377.816H106.768C99.7068 377.816 94.1317 383.387 94.1317 390.442V400.655C94.1317 407.71 99.7068 413.281 106.768 413.281H119.591C119.219 411.795 119.219 410.31 119.777 408.639C124.237 396.013 163.634 400.469 192.624 401.026C213.623 401.397 243.171 399.912 279.222 391.556C278.293 383.758 271.603 377.816 263.798 377.816Z" fill="#A33C20"/>
<path d="M103.682 369.015L92.8536 375.876L127.086 429.817L137.915 422.956L103.682 369.015Z" fill="#85321A"/>
<path d="M137.521 368.998L126.693 375.86L160.932 429.801L171.76 422.939L137.521 368.998Z" fill="#85321A"/>
<path d="M171.319 368.996L160.49 375.856L194.723 429.797L205.552 422.936L171.319 368.996Z" fill="#85321A"/>
<path d="M205.158 368.972L194.329 375.834L228.569 429.775L239.397 422.913L205.158 368.972Z" fill="#85321A"/>
<path d="M238.955 368.976L228.127 375.837L262.359 429.777L273.188 422.917L238.955 368.976Z" fill="#85321A"/>
<path d="M285.541 387.472C283.311 337.339 239.826 297.418 186.677 297.418C133.529 297.418 90.0434 337.339 87.8134 387.472H285.541Z" fill="#FFAD4B"/>
<path d="M266.735 367.184C273.728 360.998 269.524 344.843 257.345 331.099C245.167 317.356 229.626 311.23 222.633 317.416C215.641 323.602 219.845 339.758 232.023 353.501C244.201 367.244 259.743 373.37 266.735 367.184Z" fill="#FFC94B"/>
<path d="M210.65 372.989C204.146 370.946 165.306 359.063 156.386 329.54C153.413 319.699 154.528 310.044 157.315 301.688C118.29 313.2 89.6718 346.994 87.8134 387.471H285.541C285.355 382.273 284.612 377.259 283.497 372.246C263.798 378.002 238.153 381.53 210.65 372.989Z" fill="#F07D46"/>
<path d="M190.345 340.459C190.241 339.542 188.256 339.014 185.91 339.279C183.564 339.545 181.747 340.503 181.851 341.42C181.955 342.337 183.941 342.866 186.286 342.6C188.632 342.335 190.449 341.377 190.345 340.459Z" fill="#FFF6F8"/>
<path d="M228.972 319.613C229.517 318.868 228.414 317.135 226.509 315.743C224.603 314.351 222.616 313.827 222.071 314.572C221.526 315.317 222.629 317.049 224.534 318.442C226.44 319.834 228.427 320.358 228.972 319.613Z" fill="#FFF6F8"/>
<path d="M228.9 367.433C229.66 366.907 229.187 364.909 227.843 362.97C226.5 361.03 224.796 359.883 224.036 360.408C223.276 360.933 223.749 362.932 225.092 364.871C226.436 366.811 228.14 367.958 228.9 367.433Z" fill="#FFF6F8"/>
<path d="M273.315 369.04C274.075 368.515 273.602 366.517 272.259 364.577C270.916 362.638 269.211 361.491 268.451 362.016C267.692 362.541 268.165 364.539 269.508 366.479C270.851 368.419 272.556 369.565 273.315 369.04Z" fill="#FFF6F8"/>
<path d="M130.683 357.579C131.28 358.284 133.224 357.619 135.026 356.095C136.828 354.572 137.804 352.765 137.207 352.061C136.611 351.356 134.666 352.021 132.865 353.545C131.063 355.069 130.087 356.875 130.683 357.579Z" fill="#FFDCCB"/>
<path d="M243.192 346.552C243.789 347.257 245.733 346.592 247.535 345.069C249.337 343.545 250.313 341.738 249.716 341.034C249.12 340.33 247.175 340.994 245.374 342.518C243.572 344.042 242.596 345.848 243.192 346.552Z" fill="#FFF6F8"/>
<path d="M250.31 371.751C250.907 372.455 252.851 371.791 254.653 370.267C256.455 368.743 257.432 366.937 256.835 366.232C256.238 365.528 254.294 366.192 252.492 367.716C250.69 369.24 249.713 371.046 250.31 371.751Z" fill="#FFF6F8"/>
<path d="M142.7 333.436C143.46 332.911 142.987 330.912 141.644 328.973C140.3 327.033 138.596 325.886 137.836 326.411C137.076 326.937 137.549 328.935 138.893 330.874C140.236 332.814 141.94 333.961 142.7 333.436Z" fill="#FFDCCB"/>
<path d="M163.119 350.682C163.878 350.157 163.405 348.159 162.062 346.219C160.719 344.279 159.014 343.133 158.255 343.658C157.495 344.183 157.968 346.181 159.311 348.121C160.655 350.061 162.359 351.207 163.119 350.682Z" fill="#FFDCCB"/>
<path d="M192.371 319.215C192.916 318.47 191.813 316.738 189.907 315.346C188.001 313.955 186.015 313.43 185.47 314.175C184.925 314.92 186.028 316.653 187.933 318.044C189.839 319.436 191.826 319.961 192.371 319.215Z" fill="#FFF6F8"/>
<path d="M165.035 314.733C165.58 313.988 164.477 312.255 162.571 310.864C160.665 309.472 158.679 308.948 158.133 309.693C157.588 310.438 158.691 312.17 160.597 313.562C162.503 314.954 164.489 315.478 165.035 314.733Z" fill="#FFF6F8"/>
<path d="M214.873 341.016C215.077 341.916 217.109 342.224 219.411 341.703C221.713 341.182 223.414 340.03 223.21 339.13C223.006 338.23 220.975 337.923 218.672 338.443C216.37 338.964 214.669 340.116 214.873 341.016Z" fill="#FFF6F8"/>
<path d="M156.938 376.091C157.142 376.991 159.173 377.299 161.476 376.778C163.778 376.257 165.479 375.105 165.275 374.205C165.071 373.305 163.039 372.998 160.737 373.518C158.435 374.039 156.734 375.191 156.938 376.091Z" fill="#FFDCCB"/>
<path d="M106.984 350.87C107.188 351.77 109.22 352.078 111.522 351.557C113.825 351.036 115.526 349.884 115.322 348.984C115.118 348.084 113.086 347.777 110.784 348.297C108.481 348.818 106.78 349.97 106.984 350.87Z" fill="#FFDCCB"/>
<path d="M195.649 359.025C195.853 359.926 197.885 360.233 200.187 359.712C202.489 359.192 204.19 358.04 203.986 357.14C203.783 356.239 201.751 355.932 199.449 356.453C197.146 356.973 195.445 358.125 195.649 359.025Z" fill="#FFF6F8"/>
<path d="M185.378 378.765C185.582 379.666 187.613 379.973 189.916 379.452C192.218 378.932 193.919 377.78 193.715 376.88C193.511 375.979 191.479 375.672 189.177 376.193C186.875 376.713 185.174 377.865 185.378 378.765Z" fill="#FFDCCB"/>
<path d="M113.984 376.455C114.188 377.355 116.219 377.663 118.522 377.142C120.824 376.621 122.525 375.47 122.321 374.569C122.117 373.669 120.085 373.362 117.783 373.883C115.481 374.403 113.78 375.555 113.984 376.455Z" fill="#FFDCCB"/>
<path d="M111.043 413.281H174.412L141.148 430.363L111.043 413.281Z" fill="#E6C82E"/>
<path d="M206.561 413.281H269.745L236.481 430.363L206.561 413.281Z" fill="#E6C82E"/>
<path d="M174.412 413.281H111.043L118.848 417.737H165.864L174.412 413.281Z" fill="#D4942A"/>
<path d="M214.18 417.737H261.196L269.745 413.281H206.561L214.18 417.737Z" fill="#D4942A"/>
<path d="M143.192 421.822C146.909 418.48 152.855 419.037 153.227 420.336C153.784 422.193 141.891 428.135 140.59 426.464C139.847 425.721 141.705 423.122 143.192 421.822Z" fill="#FFF6F8"/>
<path d="M238.711 422.379C242.427 419.037 248.374 419.594 248.746 420.894C249.303 422.75 237.41 428.692 236.109 427.021C235.551 426.278 237.224 423.679 238.711 422.379Z" fill="#FFF6F8"/>
<path d="M231.835 423.864C232.206 424.607 233.507 424.793 234.436 424.236C234.994 423.864 235.551 423.122 235.18 422.193C234.994 421.451 234.065 421.079 233.507 421.079C232.392 421.265 231.463 422.936 231.835 423.864Z" fill="#FFF6F8"/>
<path d="M234.994 256.012L227.189 281.078L259.338 276.622L234.994 256.012Z" fill="#FF4A32"/>
<path d="M235.911 255.173L235.028 254.884L214.883 316.478L215.767 316.767L235.911 255.173Z" fill="#FFF6F8"/>
</g>
<defs>
<clipPath id="clip0_11_1296">
<rect width="241.584" height="305" fill="white" transform="translate(67 156)"/>
</clipPath>
</defs>
</svg>
